<svg xmlns="http://www.w3.org/2000/svg" viewBox="0 0 95.69 95.69"><defs><style>.cls-1,.cls-5{fill:#009fe3;}.cls-2{fill:none;}.cls-3,.cls-7{fill:#3c3c3b;}.cls-4{fill:#fff;}.cls-5,.cls-7{font-size:14.35px;font-family:MyriadPro-Regular, Myriad Pro;}.cls-6{font-size:6.11px;fill:#1d1d1b;font-family:TimesNewRomanPSMT, Times New Roman;}.cls-8{letter-spacing:0.02em;}.cls-9{letter-spacing:0em;}</style></defs><g id="Слой_2" data-name="Слой 2"><g id="Слой_1-2" data-name="Слой 1"><path class="cls-1" d="M47.85,95.53v.16c-.48,0-.94,0-1.41,0C46.91,95.64,47.39,95.58,47.85,95.53Z"/><path class="cls-2" d="M46.44,95.66c.47,0,.93,0,1.41,0v-.16C47.39,95.58,46.91,95.64,46.44,95.66Z"/><path class="cls-1" d="M69.11,71.77A23.9,23.9,0,0,1,47.85,95.53c-.46,0-.94.11-1.41.13h0c-.4,0-.8,0-1.22,0A47.83,47.83,0,0,1,0,49.07a23.93,23.93,0,0,0,23.89,22.7V47.85A23.92,23.92,0,0,0,47.85,71.77Z"/><path class="cls-1" d="M71.63,24.06l.14,23.73A23.94,23.94,0,0,0,47.85,23.92H23.92A23.93,23.93,0,0,1,46.62,0c.4,0,.8,0,1.23,0A47.81,47.81,0,0,1,95.66,46.62,23.91,23.91,0,0,0,71.63,24.06Z"/><path class="cls-3" d="M95.69,47.85A47.84,47.84,0,0,1,47.85,95.69v-.16A23.9,23.9,0,0,0,69.11,71.77H47.85A23.93,23.93,0,0,0,71.77,48v-.19l-.14-23.73a23.91,23.91,0,0,1,24,22.56C95.66,47,95.69,47.45,95.69,47.85Z"/><path class="cls-4" d="M71.77,47.79V48a24,24,0,1,1,0-.19Z"/><path class="cls-1" d="M46.41,95.66c-.4,0-.8,0-1.22,0v-.08C45.61,95.64,46,95.66,46.41,95.66Z"/><path class="cls-3" d="M47.85,23.92A23.93,23.93,0,0,0,23.92,47.85V71.77A23.93,23.93,0,0,1,0,49.07c0-.4,0-.8,0-1.22A47.81,47.81,0,0,1,46.62,0a23.93,23.93,0,0,0-22.7,23.89Z"/><text class="cls-5" transform="translate(51.79 49.88)">net</text><text class="cls-6" transform="translate(26.1 57.08)">web development</text><text class="cls-7" transform="translate(25.95 49.88)">S<tspan class="cls-8" x="7.08" y="0">k</tspan><tspan class="cls-9" x="14.05" y="0">ill</tspan></text></g></g></svg>