<svg width="18" height="19" viewBox="0 0 18 19" fill="none" xmlns="http://www.w3.org/2000/svg">
<path fill-rule="evenodd" clip-rule="evenodd" d="M8.9998 16.7C10.9094 16.7 12.7407 15.9415 14.091 14.5912C15.4412 13.241 16.1998 11.4096 16.1998 9.50005C16.1998 7.59049 15.4412 5.75914 14.091 4.40888C12.7407 3.05862 10.9094 2.30005 8.9998 2.30005C7.09025 2.30005 5.2589 3.05862 3.90864 4.40888C2.55837 5.75914 1.7998 7.59049 1.7998 9.50005C1.7998 11.4096 2.55837 13.241 3.90864 14.5912C5.2589 15.9415 7.09025 16.7 8.9998 16.7ZM9.8998 5.90005C9.8998 5.66135 9.80498 5.43244 9.6362 5.26365C9.46742 5.09487 9.2385 5.00005 8.9998 5.00005C8.76111 5.00005 8.53219 5.09487 8.36341 5.26365C8.19463 5.43244 8.0998 5.66135 8.0998 5.90005V9.50005C8.09986 9.73872 8.19471 9.96761 8.3635 10.1363L10.9087 12.6824C10.9923 12.7661 11.0916 12.8324 11.2008 12.8777C11.3101 12.9229 11.4272 12.9462 11.5455 12.9462C11.6637 12.9462 11.7808 12.9229 11.8901 12.8777C11.9993 12.8324 12.0986 12.7661 12.1822 12.6824C12.2658 12.5988 12.3322 12.4996 12.3774 12.3903C12.4227 12.2811 12.446 12.164 12.446 12.0457C12.446 11.9274 12.4227 11.8103 12.3774 11.7011C12.3322 11.5918 12.2658 11.4926 12.1822 11.4089L9.8998 9.12745V5.90005Z" fill="white"/>
</svg>
