<svg xmlns="http://www.w3.org/2000/svg" xmlns:xlink="http://www.w3.org/1999/xlink" version="1.1" id="Слой_1" x="0px" y="0px" viewBox="0 334.9 595.3 162" enable-background="new 0 334.9 595.3 162" xml:space="preserve" class="mdl-js" height="50px">
<path fill="#E30613" d="M52.9,342.4c-11,0-24.2,10.6-34.9,28.4C6.6,389.4,0,412.2,0,432.1c0,29.2,16.3,58.5,52.9,58.5  s52.9-29.3,52.9-58.5c0-19.9-6.6-42.8-18-61.2C77.1,353,63.9,342.4,52.9,342.4z M338.6,386h37v96.5h39.7V386h37v-35.7H338.6V386  L338.6,386z M537.1,386h58.2v-35.7h-58.2c-53.5,0-82,26.6-82,66.2s28.6,66.2,82,66.2h58.2v-35.8h-58.2c-24.8,0-40.9-8.9-40.9-30.4  S512.3,386,537.1,386z M257.9,350.4l-21.2,79l-21.2-79h-70.1v132.4h39.7V375l28.9,107.6h45.5l28.9-107.7v107.7h39.7V350.4H257.9z"/>
</svg>